<svg id="bold" height="512" viewBox="0 0 24 24" width="512" xmlns="http://www.w3.org/2000/svg"><path d="m10.5 15c-.333 0-.646-.166-.832-.445l-1.703-2.555h-1.965c-.552 0-1-.448-1-1s.448-1 1-1h2.5c.334 0 .646.167.832.445l1.044 1.566 2.229-4.459c.164-.326.491-.538.856-.552.388-.009.708.172.896.484l2.709 4.516h1.934c.552 0 1 .448 1 1s-.448 1-1 1h-2.5c-.351 0-.677-.184-.857-.485l-2.063-3.438-2.185 4.371c-.16.319-.477.529-.833.551-.02.001-.041.001-.062.001z"/><path d="m22.25 4h-20.5c-.965 0-1.75.785-1.75 1.75v13.5c0 .965.785 1.75 1.75 1.75h7.658c-.118.501-.429 1.314-1.262 2.146-.143.143-.186.358-.108.545.077.187.26.309.462.309h7c.202 0 .385-.122.462-.309s.034-.402-.108-.545c-.831-.831-1.151-1.644-1.275-2.146h7.671c.965 0 1.75-.785 1.75-1.75v-13.5c0-.965-.785-1.75-1.75-1.75zm-.25 13h-20v-11h20z"/></svg>